<?xml version="1.0" encoding="utf-8"?>
<!-- Generator: Adobe Illustrator 24.0.1, SVG Export Plug-In . SVG Version: 6.00 Build 0)  -->
<svg version="1.1" xmlns="http://www.w3.org/2000/svg" xmlns:xlink="http://www.w3.org/1999/xlink" x="0px" y="0px"
	 viewBox="0 0 1280 1024" style="enable-background:new 0 0 1280 1024;" xml:space="preserve">
<style type="text/css">
	.st0{fill:#378C7F;stroke:#1A1A1A;stroke-width:2.385;stroke-miterlimit:10;}
	.st1{fill:none;stroke:#009245;stroke-width:14;stroke-miterlimit:10;}
	.st2{fill:none;stroke:#0071BC;stroke-width:14;stroke-miterlimit:10;}
</style>
<g id="Layer_1">
</g>
<g id="Layer_2">
</g>
<g id="Layer_3">
	<g>
		<g>
			<path class="st0" d="M909.68,760.1c-5.59,47.7-71.81,46.94-107.39,46.54c-3.14-0.05-6.07-0.07-8.75-0.07
				c-2.65,0-5.59,0.02-8.73,0.07c-35.6,0.42-101.79,1.16-107.41-46.54c-4.23-35.98-4.97-63.55,20.18-130.6
				c1.54-4.11,3.18-8.37,4.91-12.81c3.14-7.92,5.12-14.3,6.27-19.45c2.24-9.85,1.54-15.18,0.2-18.08c-0.31-0.61-0.91-1.88-2.68-3.22
				c-0.58-10.05-0.66-20.95,0.2-32.95c1.38,0.29,2.77,0.68,4.19,1.16c15.49,5.16,22.75,14.83,26.1,22.03
				c6.43,13.8,4.47,30.03,0.11,45c-1.68,5.87-3.74,11.52-5.81,16.77c-1.69,4.29-3.29,8.44-4.78,12.41
				c-23.16,61.76-22.06,84.86-18.4,116.16c2.38,20.27,52.46,19.7,76.55,19.41c3.27-0.05,6.34-0.07,9.1-0.07
				c2.79,0,5.84,0.02,9.11,0.07c24.08,0.29,74.16,0.86,76.55-19.41c3.68-31.3,4.76-54.4-18.4-116.16
				c-1.47-3.97-3.08-8.12-4.76-12.41c-2.06-5.25-4.13-10.9-5.84-16.77c-4.36-14.98-6.31-31.23,0.13-45
				c3.36-7.19,10.62-16.86,26.1-22.03c1.04-0.35,2.06-0.66,3.08-0.89c1.84,12.2,2.02,22.47,1.4,32.57
				c-1.86,1.38-2.46,2.68-2.75,3.34c-1.36,2.9-2.06,8.23,0.17,18.03c1.19,5.15,3.16,11.56,6.3,19.5c1.74,4.44,3.39,8.69,4.91,12.81
				C914.65,696.55,913.91,724.12,909.68,760.1z"/>
			<path class="st0" d="M602.6,760.09c-5.59,47.71-71.81,46.96-107.39,46.54c-3.14-0.04-6.08-0.07-8.75-0.07
				c-2.65,0-5.59,0.02-8.73,0.07c-35.58,0.42-101.79,1.16-107.41-46.54c-4.23-35.97-4.98-63.54,20.16-130.59
				c1.56-4.12,3.2-8.38,4.94-12.81c3.14-7.92,5.11-14.3,6.27-19.46c2.24-9.85,1.54-15.18,0.2-18.07c-0.31-0.66-0.92-1.95-2.79-3.33
				c-0.61-10.11-0.42-20.35,1.43-32.57c1.01,0.24,2.04,0.55,3.07,0.9c15.49,5.15,22.75,14.83,26.1,22.02
				c6.43,13.8,4.47,30.03,0.11,45.01c-1.69,5.86-3.75,11.52-5.81,16.76c-1.69,4.3-3.29,8.44-4.78,12.41
				c-23.16,61.77-22.07,84.86-18.4,116.16c2.39,20.27,52.49,19.7,76.55,19.41c3.27-0.04,6.34-0.07,9.1-0.07
				c2.79,0,5.83,0.02,9.1,0.07c24.08,0.29,74.16,0.86,76.55-19.41c3.68-31.3,4.76-54.4-18.38-116.16
				c-1.49-3.97-3.09-8.12-4.78-12.41c-2.06-5.24-4.12-10.9-5.83-16.76c-4.36-14.98-6.32-31.23,0.13-45.01
				c3.36-7.19,10.62-16.87,26.1-22.02c1.4-0.48,2.81-0.86,4.17-1.16c0.86,12,0.79,22.9,0.2,32.92c-1.78,1.36-2.37,2.61-2.65,3.25
				c-1.36,2.9-2.06,8.23,0.18,18.03c1.18,5.15,3.16,11.56,6.29,19.5c1.73,4.43,3.38,8.69,4.91,12.81
				C607.58,696.55,606.84,724.12,602.6,760.09z"/>
			<path class="st0" d="M295.53,760.09c-5.59,47.71-71.81,46.96-107.39,46.54c-3.14-0.04-6.08-0.07-8.75-0.07v-30.71
				c2.79,0,5.83,0.02,9.1,0.07c24.08,0.29,74.16,0.86,76.55-19.41c3.68-31.3,4.76-54.4-18.38-116.16
				c-1.49-3.97-3.09-8.12-4.78-12.41c-2.06-5.24-4.12-10.9-5.83-16.76c-4.36-14.98-6.32-31.23,0.13-45.01
				c3.36-7.19,10.62-16.87,26.1-22.02c1.03-0.35,2.06-0.66,3.07-0.9c1.84,12.2,2.02,22.46,1.4,32.57c-1.86,1.38-2.46,2.68-2.76,3.33
				c-1.36,2.9-2.06,8.23,0.18,18.03c1.18,5.15,3.16,11.56,6.29,19.5c1.73,4.43,3.38,8.69,4.91,12.81
				C300.51,696.55,299.76,724.12,295.53,760.09z"/>
			<path class="st0" d="M368.5,578.5c-9.5,3.25-21.01,6.54-35.58,6.54s-26.08-3.29-35.58-6.54c0.68-10.44,0.68-20.9-0.66-32.73
				c2.06,0.68,4.08,1.38,6.05,2.08c8.99,3.18,18.31,6.47,30.18,6.47c11.87,0,21.19-3.29,30.2-6.47c1.97-0.7,3.99-1.4,6.05-2.08
				C367.85,557.6,367.82,568.06,368.5,578.5z"/>
			<path class="st0" d="M675.69,578.46c-9.52,3.27-21.08,6.58-35.69,6.58c-14.63,0-26.17-3.33-35.69-6.58
				c0.59-9.83,0.75-20.6,0.09-32.46c1.84,0.59,3.64,1.25,5.42,1.86c8.99,3.18,18.31,6.47,30.18,6.47c11.87,0,21.19-3.29,30.2-6.47
				c1.78-0.61,3.58-1.27,5.42-1.86C674.96,557.84,675.09,568.61,675.69,578.46z"/>
			<path class="st0" d="M1100.61,775.86v30.71c-2.65,0-5.59,0.02-8.73,0.07c-3.53,0.05-7.35,0.08-11.39,0.08
				c-36.72,0-90.95-3.64-96.02-46.63c-4.23-35.98-4.98-63.55,20.18-130.6c1.54-4.11,3.18-8.37,4.91-12.81
				c3.14-7.92,5.12-14.3,6.27-19.45c2.24-9.85,1.54-15.18,0.2-18.08c-0.31-0.63-0.93-1.93-2.79-3.32
				c-0.61-10.11-0.42-20.37,1.43-32.59c1,0.24,2.04,0.55,3.06,0.89c15.49,5.16,22.74,14.83,26.1,22.03c6.43,13.8,4.47,30.03,0.11,45
				c-1.69,5.87-3.74,11.52-5.81,16.77c-1.69,4.29-3.29,8.42-4.76,12.39c-23.19,61.78-22.1,84.88-18.42,116.18
				c2.38,20.27,52.48,19.7,76.55,19.41C1094.78,775.88,1097.84,775.86,1100.61,775.86z"/>
			<path class="st0" d="M982.65,578.5c-9.49,3.24-21.01,6.53-35.57,6.53c-14.57,0-26.08-3.29-35.58-6.53
				c0.68-10.45,0.68-20.9-0.66-32.72c2.06,0.68,4.08,1.37,6.06,2.07c8.99,3.18,18.32,6.48,30.18,6.48c11.87,0,21.19-3.29,30.21-6.48
				c1.97-0.7,3.98-1.4,6.05-2.07C981.99,557.6,981.97,568.06,982.65,578.5z"/>
		</g>
		<path class="st0" d="M911.49,578.5c-0.39,6.27-1.05,12.5-1.81,19.03c-1.75,14.87-9.4,25.03-20.16,31.96
			c-1.53-4.11-3.17-8.37-4.91-12.81c-3.14-7.94-5.1-14.35-6.3-19.5c0.47-1.01,0.75-2.11,0.88-3.24c0.75-6.24,1.36-12.15,1.71-18.13
			c0.62-10.1,0.44-20.37-1.4-32.57c-2.46-16.56-7.94-36.69-18.53-64.99c-1.51-4.1-3.18-8.4-4.94-12.88
			c-2.03-5.1-4.02-10.59-5.69-16.27c-4.45-15.14-6.53-31.57-0.02-45.52c3.36-7.19,10.62-16.86,26.1-22.03
			c1.01-0.32,2.02-0.63,3.01-0.87c1.87,12.21,2.09,22.45,1.51,32.54c-1.88,1.38-2.5,2.71-2.8,3.34c-1.36,2.92-2.06,8.36,0.26,18.38
			c1.18,5.09,3.14,11.39,6.2,19.15c1.8,4.58,3.49,8.97,5.07,13.22c12.88,34.37,18.91,58.37,21.17,78.44
			C912.17,557.6,912.17,568.06,911.49,578.5z"/>
		<path class="st0" d="M241.88,627.94c1.69,4.3,3.29,8.44,4.78,12.41c-20.16,4.15-42.46,3.9-58.52,3.71
			c-3.14-0.02-6.08-0.07-8.75-0.07v-30.71c2.79,0,5.83,0.04,9.1,0.07c12.33,0.15,31.47,0.37,47.55-2.17
			C237.76,617.04,239.82,622.7,241.88,627.94z"/>
		<path class="st0" d="M297.35,578.5c-0.39,6.27-1.05,12.5-1.82,19.04c-1.75,14.87-9.39,25.05-20.16,31.96
			c-1.54-4.12-3.18-8.38-4.91-12.81c-3.14-7.94-5.11-14.34-6.29-19.5c0.46-1.01,0.75-2.11,0.88-3.25
			c0.75-6.23,1.36-12.15,1.71-18.12c0.61-10.11,0.44-20.38-1.4-32.57c-2.46-16.56-7.94-36.7-18.53-64.99
			c-1.51-4.1-3.18-8.4-4.94-12.88c-2.02-5.11-4.01-10.59-5.68-16.27c-4.45-15.13-6.54-31.56-0.02-45.51
			c3.36-7.19,10.62-16.87,26.1-22.02c1.01-0.33,2.02-0.64,3-0.88c1.86,12.22,2.08,22.46,1.51,32.55c-1.89,1.38-2.5,2.7-2.81,3.33
			c-1.36,2.94-2.06,8.36,0.26,18.38c1.18,5.09,3.14,11.38,6.21,19.15c1.8,4.58,3.49,8.97,5.07,13.23
			c12.88,34.37,18.91,58.37,21.17,78.44C298.03,557.6,298.03,568.06,297.35,578.5z"/>
		<path class="st0" d="M429.68,449.09c-1.67,5.68-3.66,11.19-5.68,16.3c-1.75,4.47-3.42,8.77-4.96,12.88
			c-10.59,28.29-16.06,48.43-18.51,64.99c-1.84,12.22-2.04,22.46-1.43,32.57c0.35,5.97,0.97,11.89,1.71,18.12
			c0.13,1.16,0.44,2.26,0.88,3.29c-1.16,5.15-3.14,11.54-6.27,19.46c-1.73,4.43-3.38,8.69-4.94,12.81
			c-10.77-6.93-18.4-17.09-20.16-31.96c-0.77-6.54-1.43-12.79-1.82-19.04c-0.68-10.44-0.66-20.9,0.68-32.73
			c2.24-20.07,8.29-44.04,21.14-78.44c1.6-4.26,3.29-8.64,5.09-13.23c3.05-7.72,5.02-13.99,6.21-19.08c0-0.02,0-0.02,0-0.02
			c2.32-10.05,1.62-15.49,0.26-18.42c-0.31-0.64-0.92-1.93-2.81-3.33c-0.59-10.09-0.35-20.35,1.51-32.55c0.99,0.24,2,0.55,3,0.88
			c15.49,5.15,22.75,14.83,26.1,22.02C436.21,417.53,434.13,433.98,429.68,449.09z"/>
		<path class="st0" d="M368.48,415.93c-9.5,3.25-21.01,6.54-35.55,6.54c-14.56,0-26.06-3.29-35.55-6.54
			c0.68-10.44,0.61-20.9-0.75-32.75c2.08,0.68,4.12,1.4,6.12,2.11c8.99,3.18,18.31,6.47,30.18,6.47c11.87,0,21.19-3.29,30.2-6.47
			c2-0.7,4.01-1.43,6.1-2.11C367.87,395.03,367.82,405.51,368.48,415.93z"/>
		<path class="st0" d="M553.73,640.36c-20.16,4.15-42.46,3.9-58.52,3.71c-3.14-0.02-6.08-0.07-8.75-0.07
			c-2.65,0-5.59,0.04-8.73,0.07c-16.06,0.2-38.36,0.44-58.52-3.71c1.49-3.97,3.09-8.12,4.78-12.41c2.06-5.24,4.12-10.9,5.81-16.76
			c16.08,2.54,35.23,2.33,47.55,2.17c3.27-0.02,6.34-0.07,9.1-0.07c2.79,0,5.83,0.04,9.1,0.07c12.33,0.15,31.47,0.37,47.55-2.17
			c1.71,5.86,3.77,11.52,5.83,16.76C550.64,632.24,552.24,636.39,553.73,640.36z"/>
		<path class="st0" d="M604.31,578.46c-0.39,6.8-1.01,13.14-1.71,19.08c-1.75,14.87-9.39,25.05-20.16,31.96
			c-1.54-4.12-3.18-8.38-4.91-12.81c-3.14-7.94-5.11-14.34-6.29-19.5c0.46-1.01,0.75-2.11,0.88-3.25c0.68-5.7,1.25-11.69,1.6-18.03
			c0.59-10.02,0.66-20.92-0.2-32.92c-0.79-10.97-2.39-22.86-5.09-35.86c-2.3-11.14-5.44-23.12-9.59-36.04
			c-1.05-3.29-2.17-6.67-3.38-10.09c9.78,2.06,21.06,3.6,33.84,4.61v0.02c1.71,5.55,3.25,10.92,4.63,16.17
			c2.83,10.75,5,20.88,6.62,30.42c2.06,12.15,3.27,23.38,3.84,33.78C605.06,557.86,604.91,568.63,604.31,578.46z"/>
		<path class="st0" d="M740.85,403.38c-0.18,8.09-1.91,16.36-4.26,24.28c-3.62,0.83-7.98,1.62-12.94,2.41
			c-6.27,0.94-13.51,1.86-21.39,2.68c0.07-0.2,0.15-0.37,0.22-0.57c1.01-2.57,1.91-4.98,2.68-7.24c6.25-17.96,5.62-26.36,3.79-30.29
			c-0.07-0.13-0.13-0.29-0.22-0.46c-0.68-1.25-2.35-3.6-7.79-5.42c-0.94-0.31-1.89-0.5-2.85-0.59c0.29-5.68,4.65-17.26,9.67-29.39
			c0.94,0.24,1.93,0.53,2.9,0.86c15.49,5.15,22.75,14.83,26.1,22.02C739.93,388.47,741.07,395.84,740.85,403.38z"/>
		<path class="st0" d="M570.01,398.51c-0.75,5.46,0.37,15.05,6.8,31.8c0.22,0.61,0.48,1.23,0.72,1.86c0.18,0.46,0.37,0.94,0.55,1.4
			c-11.19-1.36-19.61-3.11-25.79-4.89c-4.17-1.21-7.3-2.43-9.61-3.58c-2.41-8.71-3.97-17.79-3.47-26.54
			c0.31-5.86,1.54-11.58,4.04-16.91c3.36-7.19,10.62-16.87,26.1-22.02c0.13-0.04,0.24-0.09,0.37-0.11
			c3.51,10.18,6.67,19.94,9.5,29.19c-0.04,0-0.11,0.02-0.15,0.04c-6.23,2.08-7.52,4.85-8.01,5.88
			C570.6,395.64,570.23,396.89,570.01,398.51z"/>
		<path class="st0" d="M668.12,396.37c-7.94,2.3-17.17,4.17-28.12,4.17c-10.16,0-18.84-1.6-26.39-3.68
			c-3.29-11.8-7.04-23.91-11.01-35.97c2.48,0.81,4.87,1.65,7.22,2.48c8.99,3.18,18.31,6.47,30.18,6.47c11.87,0,21.19-3.29,30.2-6.47
			c1.05-0.37,2.11-0.75,3.2-1.12C668.49,375.84,666.21,386.76,668.12,396.37z"/>
		<path class="st0" d="M860.79,640.36c-20.14,4.15-42.44,3.9-58.5,3.71c-3.14-0.02-6.08-0.07-8.75-0.07c-2.65,0-5.59,0.04-8.73,0.07
			c-16.08,0.2-38.36,0.44-58.52-3.71c1.49-3.97,3.09-8.12,4.78-12.41c2.06-5.24,4.12-10.9,5.81-16.76
			c16.08,2.54,35.23,2.33,47.55,2.17c3.27-0.02,6.34-0.07,9.1-0.07c2.79,0,5.83,0.04,9.1,0.07c12.33,0.15,31.47,0.37,47.55-2.17
			c1.71,5.86,3.77,11.52,5.83,16.76C857.71,632.24,859.32,636.39,860.79,640.36z"/>
		<path class="st0" d="M1043.82,449.1c-1.67,5.68-3.66,11.19-5.68,16.29c-1.75,4.48-3.4,8.75-4.94,12.85
			c-10.61,28.3-16.07,48.45-18.53,65.01c-1.85,12.22-2.04,22.48-1.43,32.59c0.35,5.97,0.99,11.87,1.72,18.1
			c0.13,1.16,0.43,2.25,0.87,3.29c-1.16,5.15-3.14,11.53-6.27,19.45c-1.73,4.44-3.37,8.69-4.91,12.81
			c-10.77-6.9-18.42-17.09-20.18-31.96c-0.78-6.53-1.43-12.78-1.82-19.03c-0.68-10.45-0.66-20.9,0.68-32.72
			c2.24-20.07,8.29-44.05,21.14-78.44c1.61-4.26,3.29-8.65,5.09-13.22c3.05-7.72,5.02-14,6.21-19.08c0-0.02,0-0.02,0-0.02
			c2.33-10.04,1.62-15.49,0.26-18.42c-0.31-0.63-0.93-1.93-2.81-3.34c-0.58-10.09-0.35-20.36,1.51-32.54
			c0.99,0.24,1.99,0.55,3.01,0.87c15.49,5.16,22.74,14.83,26.1,22.03C1050.36,417.53,1048.27,433.98,1043.82,449.1z"/>
		<path class="st0" d="M982.63,415.93c-9.5,3.25-21.01,6.54-35.55,6.54s-26.06-3.29-35.55-6.54c0.68-10.44,0.61-20.9-0.75-32.75
			c2.08,0.68,4.12,1.4,6.12,2.11c8.99,3.18,18.31,6.47,30.18,6.47c11.87,0,21.19-3.29,30.2-6.47c2-0.7,4.01-1.43,6.1-2.11
			C982.01,395.03,981.97,405.51,982.63,415.93z"/>
		<path class="st0" d="M1100.61,613.29V644c-2.65,0-5.59,0.04-8.73,0.07c-3.53,0.04-7.35,0.09-11.38,0.09
			c-14.37,0-31.39-0.55-47.11-3.82c1.47-3.97,3.07-8.09,4.76-12.39c2.06-5.24,4.12-10.9,5.81-16.76
			c16.08,2.54,35.23,2.33,47.55,2.17C1094.77,613.33,1097.85,613.29,1100.61,613.29z"/>
		<path class="st0" d="M241.88,465.39c-2.02-5.11-4.01-10.59-5.68-16.27c-16.1,2.57-35.34,2.35-47.71,2.19
			c-3.27-0.04-6.32-0.07-9.1-0.07v30.71c2.68,0,5.62,0.02,8.75,0.07c16.1,0.18,38.47,0.44,58.67-3.75
			C245.3,474.16,243.63,469.87,241.88,465.39z M627.1,467.04c-11.01-0.04-21.28-0.35-30.77-0.94c0.46,6.05,0.46,11.34-0.02,15.77
			c-0.68,0.04-1.47,0.02-2.37-0.07c2.83,10.75,5,20.88,6.62,30.42c4.67-0.5,8.99-1.82,12.85-4.17c5.26-3.18,11.84-9.61,13.31-22.13
			C627.39,480.28,627.5,473.94,627.1,467.04z M558.85,471.09c-2.02-0.75-3.93-1.47-5.68-2.15c-22.81-8.71-46.39-17.7-66.7-17.7
			c-2.76,0-5.83,0.02-9.1,0.07c-12.35,0.13-31.58,0.35-47.68-2.22c-1.67,5.68-3.66,11.19-5.68,16.3c-1.75,4.47-3.42,8.77-4.96,12.88
			c20.2,4.19,42.57,3.93,58.69,3.75c3.14-0.04,6.08-0.07,8.73-0.07c14.65,0,36.48,8.33,55.73,15.68c9.17,3.51,17.99,6.87,26.23,9.5
			C566.13,495.99,562.99,484.01,558.85,471.09z"/>
		<path class="st0" d="M731.07,303.32c-5.99,15.16-11.67,28.34-16.69,39.96c-2.15,4.98-4.43,10.29-6.6,15.51
			c-5.02,12.13-9.39,23.71-9.67,29.39c-0.07,1.05,0.02,1.91,0.26,2.52c0.02,0,0.39,0.33,1.4,0.83c1.05,0.48,2.74,1.14,5.44,1.8
			c1.21,0.29,2.37,0.57,3.53,0.86c0.09,0.18,0.15,0.33,0.22,0.46c1.82,3.93,2.46,12.33-3.79,30.29c-2.26-0.57-4.65-1.16-7.15-1.75
			c-13.58-3.27-22.46-9.41-27.13-18.78c-1.29-2.61-2.22-5.26-2.76-8.05c-1.91-9.61,0.37-20.53,5.29-34.13
			c3.27-9.04,7.68-19.28,12.79-31.12c4.94-11.41,10.51-24.35,16.3-39.04c9.08-23.03,8.51-33.12,6.47-37.53
			c-0.5-1.03-1.8-3.82-8.01-5.88c-5.18-1.73-10.59,0.02-20.53,3.53c-10.37,3.66-23.29,8.23-40.42,8.23s-30.03-4.56-40.42-8.23
			c-9.91-3.51-15.33-5.26-20.51-3.53c-6.23,2.06-7.52,4.85-8.01,5.88c-2.06,4.41-2.61,14.5,6.47,37.53
			c8.4,21.34,17.22,45.03,25.07,68.81c3.97,12.06,7.72,24.17,11.01,35.97c0.79,2.83,1.58,5.66,2.3,8.47
			c2.85,10.7,5.26,21.1,7.13,30.95c-3.93-0.04-7.7-0.13-11.3-0.24c-7.41-0.24-14.15-0.61-20.27-1.1c-0.18-0.9-0.37-1.82-0.59-2.74
			c-2.19-9.89-5-20.73-8.4-32.46c-1.03-3.58-2.11-7.24-3.27-10.99c-2.83-9.26-5.99-19.02-9.5-29.19
			c-5.99-17.53-12.94-36.32-20.77-56.22c-7.37-18.69-14.67-42.6-5.7-61.77c3.36-7.19,10.62-16.87,26.1-22.02
			c15.42-5.15,28.73-0.44,40.47,3.71c8.99,3.18,18.31,6.47,30.18,6.47c11.87,0,21.19-3.29,30.2-6.47
			c11.73-4.15,25.03-8.86,40.47-3.71c15.49,5.15,22.75,14.83,26.1,22.02C745.72,260.73,738.42,284.63,731.07,303.32z"/>
		<path class="st0" d="M400.59,380.7c-1.86,12.2-2.11,22.46-1.51,32.55c0.33,6.14,0.97,12.22,1.73,18.64
			c0.13,1.1,0.39,2.13,0.81,3.11c0,0,0,0,0,0.02c-1.18,5.09-3.16,11.36-6.21,19.08c-1.8,4.58-3.49,8.97-5.09,13.23
			c-10.68-6.93-18.27-17.06-20-31.87c-0.79-6.71-1.45-13.12-1.84-19.54c-0.66-10.42-0.61-20.9,0.75-32.75
			c2.61-22.44,9.91-49.81,26.19-91.11c9.08-23.03,8.51-33.12,6.47-37.53c-0.5-1.03-1.8-3.82-8.01-5.88
			c-5.18-1.73-10.59,0.02-20.53,3.53c-10.37,3.66-23.29,8.23-40.42,8.23c-17.13,0-30.03-4.56-40.42-8.23
			c-9.91-3.51-15.33-5.26-20.51-3.53c-6.23,2.06-7.52,4.85-8.01,5.88c-2.06,4.41-2.61,14.5,6.47,37.53
			c16.25,41.28,23.58,68.65,26.17,91.11c1.36,11.84,1.43,22.31,0.75,32.75c-0.39,6.43-1.05,12.85-1.84,19.54
			c-1.73,14.81-9.3,24.94-20,31.87c-1.58-4.26-3.27-8.64-5.07-13.23c-3.07-7.76-5.02-14.06-6.21-19.15c0.39-0.97,0.66-2,0.79-3.07
			c0.75-6.43,1.4-12.5,1.75-18.64c0.57-10.09,0.35-20.33-1.51-32.55c-2.87-18.89-9.65-42.46-23.4-77.38
			c-7.37-18.69-14.67-42.6-5.7-61.77c3.36-7.19,10.62-16.87,26.1-22.02c15.42-5.15,28.73-0.44,40.47,3.71
			c8.99,3.18,18.31,6.47,30.18,6.47c11.87,0,21.19-3.29,30.2-6.47c11.73-4.15,25.05-8.86,40.47-3.71
			c15.49,5.15,22.75,14.83,26.1,22.02c8.95,19.17,1.65,43.08-5.7,61.77C410.24,338.24,403.47,361.82,400.59,380.7z"/>
		<path class="st0" d="M773.75,436.88c-2.68,10.66-12.28,17.02-34.55,21.58c-4.39,0.88-9.26,1.71-14.65,2.48
			c-2.7,0.39-5.53,0.77-8.49,1.14c-8.38,1.01-16.98,1.82-25,2.46c-0.5,0.04-1.01,0.09-1.51,0.11c-17.57,1.36-32.29,1.89-36.1,2
			c-8.33,0.26-16.34,0.39-23.97,0.39h-2.37c-11.01-0.04-21.28-0.35-30.77-0.94c-2.39-0.13-4.72-0.31-7.02-0.46v-0.02
			c-12.79-1.01-24.06-2.54-33.84-4.61c-18.01-3.79-30.88-9.39-38.49-16.78c-6.36-6.16-9.72-13.77-9.72-22.04
			c0-7.7,4.34-14.45,11.91-18.49c4.8-2.57,11.67-4.26,20.05-5.11c-0.5,8.75,1.05,17.83,3.47,26.54c2.3,1.14,5.44,2.37,9.61,3.58
			c6.19,1.78,14.61,3.53,25.79,4.89c4.08,0.5,8.55,0.97,13.4,1.34c6.12,0.48,12.85,0.86,20.27,1.1c3.6,0.11,7.37,0.2,11.3,0.24
			c8.95,0.11,18.73,0.02,29.46-0.31c15.33-0.46,30.44-1.4,43.98-2.65c1.97-0.18,3.9-0.37,5.79-0.55c7.87-0.81,15.11-1.73,21.39-2.68
			c4.96-0.79,9.32-1.58,12.94-2.41c2.35-7.92,4.08-16.19,4.26-24.28c19.46,6.69,26.85,12.5,30.55,18.62
			C774.17,426.59,775,431.88,773.75,436.88z"/>
		<path class="st0" d="M590.89,432.18c-4.87-0.75-9.59-1.36-14.08-1.86c-6.43-16.76-7.55-26.34-6.8-31.8
			c4.04,0.31,8.2,0.7,12.48,1.21C585.89,411.46,588.7,422.29,590.89,432.18z"/>
		<path class="st0" d="M696.48,433.3c-13.53,1.25-28.65,2.19-43.98,2.65c-10.73,0.33-20.51,0.42-29.46,0.31
			c-1.86-9.85-4.28-20.24-7.13-30.95C644.17,411.37,673.32,420.95,696.48,433.3z"/>
		<path class="st0" d="M706.48,542.99c-0.86,12-0.79,22.9-0.2,32.94c0.35,6.32,0.92,12.3,1.6,18.01c0.13,1.16,0.44,2.26,0.88,3.29
			c-1.16,5.15-3.14,11.54-6.27,19.46c-1.73,4.43-3.38,8.69-4.91,12.81c-10.77-6.93-18.42-17.09-20.18-31.96
			c-0.7-5.94-1.32-12.28-1.71-19.08c-0.59-9.85-0.72-20.62-0.07-32.46c1.25-22.64,5.44-49.18,15.16-80.56
			c0.09-0.29,0.18-0.59,0.29-0.9c8.03-0.64,16.63-1.45,25-2.46c2.96-0.37,5.79-0.75,8.49-1.14c-2.54,7.33-4.78,14.37-6.76,21.12
			C711.09,505.33,707.78,525.36,706.48,542.99z"/>
		<path class="st0" d="M691.06,464.54c-0.11,0.31-0.2,0.61-0.29,0.9c-0.39-0.26-0.81-0.53-1.23-0.79
			C690.05,464.62,690.56,464.58,691.06,464.54z"/>
		<path class="st0" d="M860.96,478.27c-20.2,4.19-42.57,3.93-58.67,3.75c-3.14-0.04-6.08-0.07-8.75-0.07
			c-12.04,0-18.03,2.46-24.39,5.04c-7.11,2.92-13.34,4.85-20.38,4.85c-8.31,0-17.72-2.72-30.97-9.78c1.97-6.76,4.21-13.8,6.76-21.12
			c5.4-0.77,10.27-1.6,14.65-2.48c9.21,3.84,12.96,2.3,18.31,0.13c7.57-3.11,17.94-7.35,36.02-7.35c2.79,0,5.83,0.02,9.1,0.07
			c12.37,0.15,31.61,0.37,47.71-2.19c1.67,5.68,3.66,11.16,5.68,16.27C857.78,469.87,859.45,474.16,860.96,478.27z"/>
		<path class="st0" d="M1014.74,380.7c-1.86,12.2-2.11,22.46-1.51,32.55c0.33,6.14,0.97,12.22,1.73,18.64
			c0.13,1.1,0.39,2.13,0.81,3.11c0,0,0,0,0,0.02c-1.18,5.09-3.16,11.36-6.21,19.08c-1.8,4.58-3.49,8.97-5.09,13.23
			c-10.68-6.93-18.25-17.06-20-31.87c-0.79-6.71-1.45-13.12-1.84-19.54c-0.66-10.42-0.61-20.9,0.75-32.75
			c2.61-22.44,9.91-49.81,26.19-91.11c9.08-23.03,8.51-33.12,6.47-37.53c-0.5-1.03-1.8-3.82-8.01-5.88
			c-5.18-1.73-10.59,0.02-20.53,3.53c-10.37,3.66-23.29,8.23-40.42,8.23s-30.05-4.56-40.42-8.23c-9.91-3.51-15.33-5.26-20.51-3.53
			c-6.23,2.06-7.52,4.83-8.01,5.88c-2.06,4.41-2.61,14.5,6.47,37.53c16.25,41.28,23.58,68.65,26.17,91.11
			c1.36,11.84,1.43,22.31,0.75,32.75c-0.39,6.43-1.05,12.85-1.84,19.54c-1.73,14.81-9.3,24.94-20,31.87
			c-1.58-4.26-3.27-8.64-5.07-13.23c-3.07-7.76-5.02-14.06-6.21-19.15c0.39-0.97,0.66-2,0.79-3.07c0.75-6.43,1.4-12.5,1.75-18.64
			c0.57-10.09,0.35-20.33-1.51-32.55c-2.87-18.89-9.65-42.46-23.4-77.38c-7.37-18.69-14.67-42.6-5.7-61.77
			c3.36-7.19,10.62-16.87,26.1-22.02c15.42-5.15,28.71-0.44,40.47,3.71c8.99,3.18,18.31,6.47,30.18,6.47
			c11.87,0,21.19-3.29,30.2-6.47c11.73-4.15,25.03-8.86,40.47-3.71c15.49,5.15,22.75,14.83,26.1,22.02
			c8.95,19.17,1.65,43.08-5.7,61.77C1024.39,338.24,1017.61,361.82,1014.74,380.7z"/>
		<path class="st0" d="M1100.61,451.24v30.71c-2.65,0-5.59,0.02-8.73,0.07c-3.53,0.04-7.35,0.09-11.38,0.09
			c-14.41,0-31.52-0.55-47.29-3.86c1.54-4.1,3.18-8.38,4.94-12.85c2.02-5.11,4.01-10.62,5.68-16.3c16.1,2.57,35.34,2.35,47.68,2.22
			C1094.77,451.27,1097.85,451.24,1100.61,451.24z"/>
	</g>
	<g>
		<path class="st1" d="M-105.66,363.66c-14,0-44,2-46-15s-2-29,11-62c4.92-12.48,7.33-24.89-5-29c-9-3-16,5-30,5s-21-8-30-5
			c-12.33,4.11-9.92,16.52-5,29c13,33,13,45,11,62s-32,15-46,15s-44,2-46-15s-2-29,11-62c4.92-12.48,7.33-24.89-5-29c-9-3-16,5-30,5
			s-21-8-30-5c-12.33,4.11-9.92,16.52-5,29c13,33,13,45,11,62s-32,15-46,15s-44,2-46-15s-2-29,11-62c4.92-12.48,7.33-24.89-5-29
			c-9-3-16,5-30,5s-21-8-30-5c-12.33,4.11-9.92,16.52-5,29c13,33,13,45,11,62s-32,15-46,15"/>
	</g>
	<path class="st2" d="M-105.66,289.55c-14,0-44,2-46-15s-2-29,11-62c4.92-12.48,7.33-24.89-5-29c-9-3-16,5-30,5s-21-8-30-5
		c-12.33,4.11-9.92,16.52-5,29c13,33,13,45,11,62s-32,15-46,15s-44,2-46-15s-2-39,11-72c4.92-12.48,7.33-24.89-5-29c-9-3-16,5-30,5
		s-21-8-30-5c-12.33,4.11-9.92,16.52-5,29c13,33,13,55,11,72s-32,15-46,15s-44,2-46-15s-2-29,11-62c4.92-12.48,7.33-24.89-5-29
		c-9-3-16,5-30,5s-21-8-30-5c-12.33,4.11-9.92,16.52-5,29c13,33,13,45,11,62s-32,15-46,15"/>
	<g>
		<path class="st2" d="M-287.57,189.07c-16.64-4.01-6.08-17.41,6.92-50.41c4.92-12.48,7.33-24.89-5-29c-9-3-16,5-30,5s-21-8-30-5
			c-12.33,4.11-9.92,16.52-5,29c13,33,24,68,22,85s-36.92-8-57-8c-14,0-44,2-46-15s-2-29,11-62c4.92-12.48,7.33-24.89-5-29
			c-9-3-16,5-30,5s-21-8-30-5c-12.33,4.11-9.92,16.52-5,29c13,33,13,45,11,62s-32,15-46,15"/>
		<path class="st2" d="M-369.18,195.42c0,13.83,42.44,13.79,59.44,13.27s85.04-4.49,22.17-19.62"/>
		<path class="st2" d="M-245.66,215.66c-20,0-13.81,13.13-41.59-5.46c-27.05-18.1-81.93-23.39-81.93-14.78"/>
		<path class="st2" d="M-105.66,215.66c-14,0-44,2-46-15s-2-29,11-62c4.92-12.48,7.33-24.89-5-29c-9-3-16,5-30,5s-21-8-30-5
			c-12.33,4.11-9.92,16.52-5,29c13,33,13,45,11,62s-32,15-46,15"/>
	</g>
</g>
</svg>
